# xmcd
#
# Track frame offsets: 
#        150
#        6279
#        25638
#        43048
#        62304
#        78306
#        100520
#        123866
#        144821
#        149968
#        163891
#        184782
#
# Disc length: 2759 seconds
#
# Revision: 1
# Processed by: cddbd v1.5.1PL0 Copyright (c) Steve Scherf et al.
# Submitted via: ExactAudioCopy v0.95b1
#
DISCID=950ac50c
DTITLE=Bet Williams - Blues Garage 2005 sound 1
DYEAR=1900
DGENRE=
TTITLE0=Intro
TTITLE1=Intuition
TTITLE2=Ooh La La
TTITLE3=Somehow Moved
TTITLE4=Dragonflies
TTITLE5=Blind Eye
TTITLE6=Rose Tattoo
TTITLE7=The Maker
TTITLE8=Deutschland Band Intro
TTITLE9=Corrina
TTITLE10=Bleed
TTITLE11=Killed My Man
EXTD=
EXTT0=
EXTT1=
EXTT2=
EXTT3=
EXTT4=
EXTT5=
EXTT6=
EXTT7=
EXTT8=
EXTT9=
EXTT10=
EXTT11=
PLAYORDER=
